<svg xmlns="http://www.w3.org/2000/svg" width="100" height="100" viewBox="0 0 2481 3508">
  <path d="M851.58,1727.43C851.58,1727.43 985.784,1007.67 1045.7,860.92C1066.61,809.705 1098.93,766.259 1143.51,799.015C1308.79,920.459 2037.38,1589.58 2037.38,1589.58C2037.38,1589.58 2086.11,1629.64 2031.7,1688.47C1977.3,1747.31 1616.24,2035.02 1616.24,2035.02C1616.24,2035.02 1554.5,2088.38 1448.23,2084.67C1341.96,2080.96 972.502,2040.3 972.502,2040.3C972.502,2040.3 792.676,2019.36 816.466,1899.32C840.257,1779.28 851.58,1727.43 851.58,1727.43ZM1532.35,2490.89C1532.35,2490.89 1559.16,2260.5 1575.33,2215.15C1591.5,2169.8 1600.72,2133.6 1670.36,2067.44C1740,2001.28 1948.73,1821.34 1948.73,1821.34C1948.73,1821.34 2082.74,1691.46 2141.63,1674.51C2200.52,1657.56 2316.82,1632.33 2263.68,1701.67C2210.53,1771.02 1560.07,2616.22 1560.07,2616.22C1560.07,2616.22 1489.89,2695.18 1532.35,2490.89ZM287.904,1971.15C278.368,1945.74 266.854,1915.87 263.581,1889.37C258.653,1849.46 250.314,1811.08 313.386,1731.22C376.457,1651.36 583.899,1370.38 583.899,1370.38L961.024,858.798C961.024,858.798 1048.84,712.959 994.648,923.859C940.454,1134.76 809.073,1732.47 809.073,1732.47C809.073,1732.47 731.624,1997.76 620.393,2060.35C509.162,2122.94 469.876,2144.59 423.553,2153.07C393.631,2158.54 363.734,2151.18 342.453,2111.23C321.172,2071.28 301.646,2007.78 287.904,1971.15ZM1966.32,1461.35L1275.94,856.001C1275.94,856.001 1196.5,777.739 1349.14,870.436C1501.78,963.134 1894.28,1168.67 1894.28,1168.67C1894.28,1168.67 2082.86,1255.24 2159.12,1391.89C2235.38,1528.54 2273.3,1569.33 2273.3,1569.33C2273.3,1569.33 2303.12,1625.1 2230.45,1616.28C2157.77,1607.45 2076.53,1565.11 1966.32,1461.35ZM483.963,2255.18C484.167,2256.25 377.684,2215.37 508.236,2156.79C616.548,2108.19 619.507,2105.11 679.355,2096.12C763.993,2083.41 909.437,2065.2 1016.07,2080.54C1122.7,2095.89 1329.09,2110.97 1410.62,2143.32C1467.55,2165.92 1509.66,2172.73 1508.13,2267.23C1506.6,2361.73 1487.44,2617.65 1487.44,2617.65C1487.44,2617.65 1474.17,2708.63 1375.13,2664.18C1276.09,2619.74 953.396,2476.37 953.396,2476.37C953.396,2476.37 483.759,2254.12 483.963,2255.18Z" stroke="#888888" stroke-width="60" fill="none"/>
</svg>
