<svg xmlns="http://www.w3.org/2000/svg" width="100" height="100" viewBox="0 0 100 100">
  <svg x="10" y="10" width="80" height="80" viewBox="0 0 2481 3508" preserveAspectRatio="xMidYMid meet">
    <path d="M353.181,2223.36L269.416,1711.92C269.416,1711.92 231.75,1535.93 428.223,1571.58C624.696,1607.23 1590.23,1861.72 1590.23,1861.72C1590.23,1861.72 1813.32,1891.35 1811.53,2143.82C1809.73,2396.3 1813.55,2766.85 1792.49,2819.38C1776.26,2859.9 1741.85,2952.91 1610.8,2914.19C1479.76,2875.47 581.285,2632.09 581.285,2632.09C581.285,2632.09 431.152,2588.25 397.369,2462.15C363.587,2336.04 353.181,2223.36 353.181,2223.36ZM1851.11,2668.22C1851.6,2651.63 1875.5,1974.64 1875.5,1974.64C1875.5,1974.64 1893.14,1848.43 1986.29,1633.14C2079.45,1417.85 2188.93,1130.5 2188.93,1130.5C2188.93,1130.5 2269.5,908.29 2230.43,1269.24C2191.35,1630.18 2205.3,1630.98 2182.82,1831.11C2165.7,1983.47 2136.92,2090.69 2087.63,2240.32C2058.54,2328.64 1965.71,2573.96 1939.41,2636.19C1927.23,2665.04 1843.61,2918.6 1851.11,2668.22ZM404.249,1266.97L768.321,722.431C768.321,722.431 840.597,582.793 1048.27,625.875C1255.95,668.957 1868.98,783.713 1868.98,783.713C1868.98,783.713 2278.91,795.292 2163.4,1056.36C2047.89,1317.43 1904.44,1654.8 1904.44,1654.8C1904.44,1654.8 1836.4,1850.22 1566.26,1781.81C1296.12,1713.39 607.244,1571.2 607.244,1571.2C607.244,1571.2 423.866,1532.89 402.334,1519.85C380.803,1506.8 267.013,1451.79 404.249,1266.97Z" stroke="#888888" stroke-width="40" fill="none"/>
  </svg>
</svg>
