<svg xmlns="http://www.w3.org/2000/svg" width="100" height="100" viewBox="0 0 2481 3508">
  <path d="M384.098,1613.26L614.276,856.714C614.276,856.714 671.534,798.025 646.852,1007.92C622.17,1217.81 587.729,1546.12 587.729,1546.12L541.405,1780.38C541.405,1780.38 539.627,1916.78 427.688,1998.84C315.75,2080.91 233.971,2139.8 275.889,1990.54C317.807,1841.27 384.098,1613.26 384.098,1613.26ZM616.91,1745.63L668.152,1095.37C668.152,1095.37 682.371,781.749 688.298,738.144C693.159,702.371 715.273,566.798 862.604,621.109C897.803,634.084 946.451,656.932 999.565,684.163C1117.69,744.723 1466.51,907.601 1466.51,907.601L2100.82,1211.26C2100.82,1211.26 2154.35,1242.23 1969.21,1325.4C1733.57,1431.25 1216.07,1646.27 1216.07,1646.27L725.872,1856.92C725.872,1856.92 594.511,1927.61 616.91,1745.63ZM1178.27,2665.72L365.823,2225.15C365.823,2225.15 250.816,2144.69 363.109,2093.3C475.401,2041.9 532.98,2025.58 627.191,2097.76C721.403,2169.93 1409.67,2751.37 1409.67,2751.37C1409.67,2751.37 1506.39,2845.47 1353.56,2759.11C1200.73,2672.76 1178.27,2665.72 1178.27,2665.72ZM883.913,2269.65L696.412,2055.9C696.412,2055.9 630.589,1969.64 776.957,1890.81C1028,1755.59 1319.47,1630.19 1319.47,1630.19L1682.09,1484.95L2072.03,1348.35C2072.03,1348.35 2206.19,1287.44 2136.29,1488.63C2066.39,1689.83 1725.45,2783.54 1725.45,2783.54C1725.45,2783.54 1691.58,2908.53 1540.33,2807.28C1341.91,2674.47 883.913,2269.65 883.913,2269.65Z" stroke="#888888" stroke-width="60" fill="none"/>
</svg>
